<mxfile host="app.diagrams.net" agent="Mozilla/5.0 (Macintosh; Intel Mac OS X 10_15_7) AppleWebKit/537.36 (KHTML, like Gecko) Chrome/137.0.0.0 Safari/537.36" version="27.2.0">
  <diagram name="Page-1" id="Wpb7lffDQaTQN_STUFut">
    <mxGraphModel dx="1826" dy="1665" grid="1" gridSize="10" guides="1" tooltips="1" connect="1" arrows="1" fold="1" page="1" pageScale="1" pageWidth="850" pageHeight="1100" math="0" shadow="0">
      <root>
        <mxCell id="0" />
        <mxCell id="1" parent="0" />
        <mxCell id="ULMexEgT5RFxVUXGFJnt-53" value="" style="group" parent="1" vertex="1" connectable="0">
          <mxGeometry x="-100" y="-70" width="1300" height="1390" as="geometry" />
        </mxCell>
        <mxCell id="ULMexEgT5RFxVUXGFJnt-51" value="" style="rounded=1;whiteSpace=wrap;html=1;arcSize=2;" parent="ULMexEgT5RFxVUXGFJnt-53" vertex="1">
          <mxGeometry width="1300" height="1390" as="geometry" />
        </mxCell>
        <mxCell id="5yk39SSH48Gkq1F0wZIZ-6" style="edgeStyle=orthogonalEdgeStyle;rounded=0;orthogonalLoop=1;jettySize=auto;html=1;" parent="ULMexEgT5RFxVUXGFJnt-53" source="5yk39SSH48Gkq1F0wZIZ-1" target="5yk39SSH48Gkq1F0wZIZ-5" edge="1">
          <mxGeometry relative="1" as="geometry" />
        </mxCell>
        <mxCell id="5yk39SSH48Gkq1F0wZIZ-1" value="Branch 1" style="rounded=1;whiteSpace=wrap;html=1;" parent="ULMexEgT5RFxVUXGFJnt-53" vertex="1">
          <mxGeometry x="250" y="290" width="120" height="60" as="geometry" />
        </mxCell>
        <mxCell id="5yk39SSH48Gkq1F0wZIZ-7" style="edgeStyle=orthogonalEdgeStyle;rounded=0;orthogonalLoop=1;jettySize=auto;html=1;entryX=0;entryY=0;entryDx=0;entryDy=0;" parent="ULMexEgT5RFxVUXGFJnt-53" source="5yk39SSH48Gkq1F0wZIZ-2" target="5yk39SSH48Gkq1F0wZIZ-5" edge="1">
          <mxGeometry relative="1" as="geometry" />
        </mxCell>
        <mxCell id="5yk39SSH48Gkq1F0wZIZ-2" value="Branch 2" style="rounded=1;whiteSpace=wrap;html=1;" parent="ULMexEgT5RFxVUXGFJnt-53" vertex="1">
          <mxGeometry x="250" y="390" width="120" height="60" as="geometry" />
        </mxCell>
        <mxCell id="5yk39SSH48Gkq1F0wZIZ-8" style="edgeStyle=orthogonalEdgeStyle;rounded=0;orthogonalLoop=1;jettySize=auto;html=1;entryX=0;entryY=0.5;entryDx=0;entryDy=0;" parent="ULMexEgT5RFxVUXGFJnt-53" source="5yk39SSH48Gkq1F0wZIZ-3" target="5yk39SSH48Gkq1F0wZIZ-5" edge="1">
          <mxGeometry relative="1" as="geometry" />
        </mxCell>
        <mxCell id="5yk39SSH48Gkq1F0wZIZ-3" value="Branch 3" style="rounded=1;whiteSpace=wrap;html=1;" parent="ULMexEgT5RFxVUXGFJnt-53" vertex="1">
          <mxGeometry x="250" y="490" width="120" height="60" as="geometry" />
        </mxCell>
        <mxCell id="5yk39SSH48Gkq1F0wZIZ-9" style="edgeStyle=orthogonalEdgeStyle;rounded=0;orthogonalLoop=1;jettySize=auto;html=1;entryX=0.5;entryY=1;entryDx=0;entryDy=0;" parent="ULMexEgT5RFxVUXGFJnt-53" source="5yk39SSH48Gkq1F0wZIZ-4" target="5yk39SSH48Gkq1F0wZIZ-5" edge="1">
          <mxGeometry relative="1" as="geometry" />
        </mxCell>
        <mxCell id="5yk39SSH48Gkq1F0wZIZ-4" value="Shared" style="rounded=1;whiteSpace=wrap;html=1;" parent="ULMexEgT5RFxVUXGFJnt-53" vertex="1">
          <mxGeometry x="250" y="590" width="120" height="60" as="geometry" />
        </mxCell>
        <mxCell id="5yk39SSH48Gkq1F0wZIZ-11" value="" style="edgeStyle=orthogonalEdgeStyle;rounded=0;orthogonalLoop=1;jettySize=auto;html=1;" parent="ULMexEgT5RFxVUXGFJnt-53" source="5yk39SSH48Gkq1F0wZIZ-5" target="5yk39SSH48Gkq1F0wZIZ-10" edge="1">
          <mxGeometry relative="1" as="geometry" />
        </mxCell>
        <mxCell id="5yk39SSH48Gkq1F0wZIZ-5" value="Concat" style="ellipse;whiteSpace=wrap;html=1;" parent="ULMexEgT5RFxVUXGFJnt-53" vertex="1">
          <mxGeometry x="470" y="440" width="120" height="80" as="geometry" />
        </mxCell>
        <mxCell id="5yk39SSH48Gkq1F0wZIZ-13" value="" style="edgeStyle=orthogonalEdgeStyle;rounded=0;orthogonalLoop=1;jettySize=auto;html=1;" parent="ULMexEgT5RFxVUXGFJnt-53" source="5yk39SSH48Gkq1F0wZIZ-10" target="5yk39SSH48Gkq1F0wZIZ-12" edge="1">
          <mxGeometry relative="1" as="geometry" />
        </mxCell>
        <mxCell id="5yk39SSH48Gkq1F0wZIZ-10" value="Final Conv" style="rounded=1;whiteSpace=wrap;html=1;" parent="ULMexEgT5RFxVUXGFJnt-53" vertex="1">
          <mxGeometry x="630" y="450" width="120" height="60" as="geometry" />
        </mxCell>
        <mxCell id="5yk39SSH48Gkq1F0wZIZ-21" value="" style="edgeStyle=orthogonalEdgeStyle;rounded=0;orthogonalLoop=1;jettySize=auto;html=1;" parent="ULMexEgT5RFxVUXGFJnt-53" source="5yk39SSH48Gkq1F0wZIZ-12" target="5yk39SSH48Gkq1F0wZIZ-20" edge="1">
          <mxGeometry relative="1" as="geometry" />
        </mxCell>
        <mxCell id="5yk39SSH48Gkq1F0wZIZ-12" value="Add" style="ellipse;whiteSpace=wrap;html=1;" parent="ULMexEgT5RFxVUXGFJnt-53" vertex="1">
          <mxGeometry x="790" y="440" width="120" height="80" as="geometry" />
        </mxCell>
        <mxCell id="5yk39SSH48Gkq1F0wZIZ-15" style="edgeStyle=orthogonalEdgeStyle;rounded=0;orthogonalLoop=1;jettySize=auto;html=1;entryX=0;entryY=0.5;entryDx=0;entryDy=0;" parent="ULMexEgT5RFxVUXGFJnt-53" source="5yk39SSH48Gkq1F0wZIZ-14" target="5yk39SSH48Gkq1F0wZIZ-3" edge="1">
          <mxGeometry relative="1" as="geometry" />
        </mxCell>
        <mxCell id="5yk39SSH48Gkq1F0wZIZ-16" style="edgeStyle=orthogonalEdgeStyle;rounded=0;orthogonalLoop=1;jettySize=auto;html=1;entryX=0;entryY=0.5;entryDx=0;entryDy=0;" parent="ULMexEgT5RFxVUXGFJnt-53" source="5yk39SSH48Gkq1F0wZIZ-14" target="5yk39SSH48Gkq1F0wZIZ-2" edge="1">
          <mxGeometry relative="1" as="geometry" />
        </mxCell>
        <mxCell id="5yk39SSH48Gkq1F0wZIZ-17" style="edgeStyle=orthogonalEdgeStyle;rounded=0;orthogonalLoop=1;jettySize=auto;html=1;entryX=0;entryY=0.5;entryDx=0;entryDy=0;" parent="ULMexEgT5RFxVUXGFJnt-53" source="5yk39SSH48Gkq1F0wZIZ-14" target="5yk39SSH48Gkq1F0wZIZ-1" edge="1">
          <mxGeometry relative="1" as="geometry" />
        </mxCell>
        <mxCell id="5yk39SSH48Gkq1F0wZIZ-18" style="edgeStyle=orthogonalEdgeStyle;rounded=0;orthogonalLoop=1;jettySize=auto;html=1;entryX=0;entryY=0.5;entryDx=0;entryDy=0;" parent="ULMexEgT5RFxVUXGFJnt-53" source="5yk39SSH48Gkq1F0wZIZ-14" target="5yk39SSH48Gkq1F0wZIZ-4" edge="1">
          <mxGeometry relative="1" as="geometry" />
        </mxCell>
        <mxCell id="ULMexEgT5RFxVUXGFJnt-49" style="edgeStyle=orthogonalEdgeStyle;rounded=0;orthogonalLoop=1;jettySize=auto;html=1;entryX=0;entryY=0.5;entryDx=0;entryDy=0;" parent="ULMexEgT5RFxVUXGFJnt-53" source="5yk39SSH48Gkq1F0wZIZ-14" target="ULMexEgT5RFxVUXGFJnt-47" edge="1">
          <mxGeometry relative="1" as="geometry">
            <Array as="points">
              <mxPoint x="130" y="230" />
            </Array>
          </mxGeometry>
        </mxCell>
        <mxCell id="5yk39SSH48Gkq1F0wZIZ-14" value="Input" style="shape=parallelogram;perimeter=parallelogramPerimeter;whiteSpace=wrap;html=1;fixedSize=1;" parent="ULMexEgT5RFxVUXGFJnt-53" vertex="1">
          <mxGeometry x="60" y="450" width="120" height="60" as="geometry" />
        </mxCell>
        <mxCell id="5yk39SSH48Gkq1F0wZIZ-23" value="" style="edgeStyle=orthogonalEdgeStyle;rounded=0;orthogonalLoop=1;jettySize=auto;html=1;" parent="ULMexEgT5RFxVUXGFJnt-53" source="5yk39SSH48Gkq1F0wZIZ-20" target="5yk39SSH48Gkq1F0wZIZ-22" edge="1">
          <mxGeometry relative="1" as="geometry" />
        </mxCell>
        <mxCell id="5yk39SSH48Gkq1F0wZIZ-20" value="ReLU" style="rounded=1;whiteSpace=wrap;html=1;" parent="ULMexEgT5RFxVUXGFJnt-53" vertex="1">
          <mxGeometry x="950" y="450" width="120" height="60" as="geometry" />
        </mxCell>
        <mxCell id="5yk39SSH48Gkq1F0wZIZ-22" value="Output" style="shape=parallelogram;perimeter=parallelogramPerimeter;whiteSpace=wrap;html=1;fixedSize=1;" parent="ULMexEgT5RFxVUXGFJnt-53" vertex="1">
          <mxGeometry x="1110" y="450" width="120" height="60" as="geometry" />
        </mxCell>
        <mxCell id="ULMexEgT5RFxVUXGFJnt-4" style="edgeStyle=orthogonalEdgeStyle;rounded=0;orthogonalLoop=1;jettySize=auto;html=1;" parent="ULMexEgT5RFxVUXGFJnt-53" source="ULMexEgT5RFxVUXGFJnt-1" target="ULMexEgT5RFxVUXGFJnt-2" edge="1">
          <mxGeometry relative="1" as="geometry" />
        </mxCell>
        <mxCell id="ULMexEgT5RFxVUXGFJnt-1" value="Conv 1x1&lt;div&gt;in = in_channels&lt;/div&gt;&lt;div&gt;out = mid_channels&lt;/div&gt;" style="rounded=1;whiteSpace=wrap;html=1;" parent="ULMexEgT5RFxVUXGFJnt-53" vertex="1">
          <mxGeometry x="150" y="730" width="120" height="60" as="geometry" />
        </mxCell>
        <mxCell id="ULMexEgT5RFxVUXGFJnt-5" style="edgeStyle=orthogonalEdgeStyle;rounded=0;orthogonalLoop=1;jettySize=auto;html=1;entryX=0;entryY=0.5;entryDx=0;entryDy=0;" parent="ULMexEgT5RFxVUXGFJnt-53" source="ULMexEgT5RFxVUXGFJnt-2" target="ULMexEgT5RFxVUXGFJnt-3" edge="1">
          <mxGeometry relative="1" as="geometry" />
        </mxCell>
        <mxCell id="ULMexEgT5RFxVUXGFJnt-2" value="Batch Normalization" style="rounded=1;whiteSpace=wrap;html=1;" parent="ULMexEgT5RFxVUXGFJnt-53" vertex="1">
          <mxGeometry x="320" y="730" width="120" height="60" as="geometry" />
        </mxCell>
        <mxCell id="ULMexEgT5RFxVUXGFJnt-3" value="ReLU" style="rounded=1;whiteSpace=wrap;html=1;" parent="ULMexEgT5RFxVUXGFJnt-53" vertex="1">
          <mxGeometry x="490" y="730" width="120" height="60" as="geometry" />
        </mxCell>
        <mxCell id="ULMexEgT5RFxVUXGFJnt-6" value="Shared" style="text;html=1;align=center;verticalAlign=middle;whiteSpace=wrap;rounded=0;" parent="ULMexEgT5RFxVUXGFJnt-53" vertex="1">
          <mxGeometry x="40" y="745" width="60" height="30" as="geometry" />
        </mxCell>
        <mxCell id="ULMexEgT5RFxVUXGFJnt-7" style="edgeStyle=orthogonalEdgeStyle;rounded=0;orthogonalLoop=1;jettySize=auto;html=1;" parent="ULMexEgT5RFxVUXGFJnt-53" source="ULMexEgT5RFxVUXGFJnt-8" target="ULMexEgT5RFxVUXGFJnt-10" edge="1">
          <mxGeometry relative="1" as="geometry" />
        </mxCell>
        <mxCell id="ULMexEgT5RFxVUXGFJnt-8" value="DepthWiseConv 3x3&lt;div&gt;d = 6&lt;/div&gt;&lt;div&gt;p = 6&lt;/div&gt;&lt;div&gt;in = mid_channels&lt;/div&gt;&lt;div&gt;&lt;span style=&quot;caret-color: rgba(0, 0, 0, 0);&quot;&gt;out = mid_channels&lt;/span&gt;&lt;/div&gt;" style="rounded=1;whiteSpace=wrap;html=1;" parent="ULMexEgT5RFxVUXGFJnt-53" vertex="1">
          <mxGeometry x="320" y="830" width="120" height="80" as="geometry" />
        </mxCell>
        <mxCell id="ULMexEgT5RFxVUXGFJnt-9" style="edgeStyle=orthogonalEdgeStyle;rounded=0;orthogonalLoop=1;jettySize=auto;html=1;entryX=0;entryY=0.5;entryDx=0;entryDy=0;" parent="ULMexEgT5RFxVUXGFJnt-53" source="ULMexEgT5RFxVUXGFJnt-10" target="ULMexEgT5RFxVUXGFJnt-11" edge="1">
          <mxGeometry relative="1" as="geometry" />
        </mxCell>
        <mxCell id="ULMexEgT5RFxVUXGFJnt-10" value="Conv 1x1&lt;div&gt;&lt;div style=&quot;caret-color: rgba(0, 0, 0, 0);&quot;&gt;in = mid_channels&lt;/div&gt;&lt;div style=&quot;caret-color: rgba(0, 0, 0, 0);&quot;&gt;&lt;span style=&quot;caret-color: rgba(0, 0, 0, 0);&quot;&gt;out = mid_channels&lt;/span&gt;&lt;/div&gt;&lt;/div&gt;" style="rounded=1;whiteSpace=wrap;html=1;" parent="ULMexEgT5RFxVUXGFJnt-53" vertex="1">
          <mxGeometry x="490" y="840" width="120" height="60" as="geometry" />
        </mxCell>
        <mxCell id="ULMexEgT5RFxVUXGFJnt-14" value="" style="edgeStyle=orthogonalEdgeStyle;rounded=0;orthogonalLoop=1;jettySize=auto;html=1;" parent="ULMexEgT5RFxVUXGFJnt-53" source="ULMexEgT5RFxVUXGFJnt-11" target="ULMexEgT5RFxVUXGFJnt-13" edge="1">
          <mxGeometry relative="1" as="geometry" />
        </mxCell>
        <mxCell id="ULMexEgT5RFxVUXGFJnt-11" value="Batch Normalization" style="rounded=1;whiteSpace=wrap;html=1;" parent="ULMexEgT5RFxVUXGFJnt-53" vertex="1">
          <mxGeometry x="660" y="840" width="120" height="60" as="geometry" />
        </mxCell>
        <mxCell id="ULMexEgT5RFxVUXGFJnt-12" value="Branch 1" style="text;html=1;align=center;verticalAlign=middle;whiteSpace=wrap;rounded=0;" parent="ULMexEgT5RFxVUXGFJnt-53" vertex="1">
          <mxGeometry x="40" y="855" width="60" height="30" as="geometry" />
        </mxCell>
        <mxCell id="ULMexEgT5RFxVUXGFJnt-13" value="ReLU" style="rounded=1;whiteSpace=wrap;html=1;" parent="ULMexEgT5RFxVUXGFJnt-53" vertex="1">
          <mxGeometry x="830" y="840" width="120" height="60" as="geometry" />
        </mxCell>
        <mxCell id="ULMexEgT5RFxVUXGFJnt-15" style="edgeStyle=orthogonalEdgeStyle;rounded=0;orthogonalLoop=1;jettySize=auto;html=1;" parent="ULMexEgT5RFxVUXGFJnt-53" source="ULMexEgT5RFxVUXGFJnt-16" target="ULMexEgT5RFxVUXGFJnt-18" edge="1">
          <mxGeometry relative="1" as="geometry" />
        </mxCell>
        <mxCell id="ULMexEgT5RFxVUXGFJnt-16" value="DepthWiseConv 3x3&lt;div&gt;d = 12&lt;/div&gt;&lt;div&gt;p = 12&lt;/div&gt;&lt;div&gt;&lt;div style=&quot;caret-color: rgba(0, 0, 0, 0);&quot;&gt;in = mid_channels&lt;/div&gt;&lt;div style=&quot;caret-color: rgba(0, 0, 0, 0);&quot;&gt;&lt;span style=&quot;caret-color: rgba(0, 0, 0, 0);&quot;&gt;out = mid_channels&lt;/span&gt;&lt;/div&gt;&lt;/div&gt;" style="rounded=1;whiteSpace=wrap;html=1;" parent="ULMexEgT5RFxVUXGFJnt-53" vertex="1">
          <mxGeometry x="320" y="940" width="120" height="80" as="geometry" />
        </mxCell>
        <mxCell id="ULMexEgT5RFxVUXGFJnt-17" style="edgeStyle=orthogonalEdgeStyle;rounded=0;orthogonalLoop=1;jettySize=auto;html=1;entryX=0;entryY=0.5;entryDx=0;entryDy=0;" parent="ULMexEgT5RFxVUXGFJnt-53" source="ULMexEgT5RFxVUXGFJnt-18" target="ULMexEgT5RFxVUXGFJnt-20" edge="1">
          <mxGeometry relative="1" as="geometry" />
        </mxCell>
        <mxCell id="ULMexEgT5RFxVUXGFJnt-18" value="Conv 1x1&lt;div&gt;&lt;div style=&quot;caret-color: rgba(0, 0, 0, 0);&quot;&gt;in = mid_channels&lt;/div&gt;&lt;div style=&quot;caret-color: rgba(0, 0, 0, 0);&quot;&gt;&lt;span style=&quot;caret-color: rgba(0, 0, 0, 0);&quot;&gt;out = mid_channels&lt;/span&gt;&lt;/div&gt;&lt;/div&gt;" style="rounded=1;whiteSpace=wrap;html=1;" parent="ULMexEgT5RFxVUXGFJnt-53" vertex="1">
          <mxGeometry x="490" y="950" width="120" height="60" as="geometry" />
        </mxCell>
        <mxCell id="ULMexEgT5RFxVUXGFJnt-19" value="" style="edgeStyle=orthogonalEdgeStyle;rounded=0;orthogonalLoop=1;jettySize=auto;html=1;" parent="ULMexEgT5RFxVUXGFJnt-53" source="ULMexEgT5RFxVUXGFJnt-20" target="ULMexEgT5RFxVUXGFJnt-22" edge="1">
          <mxGeometry relative="1" as="geometry" />
        </mxCell>
        <mxCell id="ULMexEgT5RFxVUXGFJnt-20" value="Batch Normalization" style="rounded=1;whiteSpace=wrap;html=1;" parent="ULMexEgT5RFxVUXGFJnt-53" vertex="1">
          <mxGeometry x="660" y="950" width="120" height="60" as="geometry" />
        </mxCell>
        <mxCell id="ULMexEgT5RFxVUXGFJnt-21" value="Branch 2" style="text;html=1;align=center;verticalAlign=middle;whiteSpace=wrap;rounded=0;" parent="ULMexEgT5RFxVUXGFJnt-53" vertex="1">
          <mxGeometry x="40" y="965" width="60" height="30" as="geometry" />
        </mxCell>
        <mxCell id="ULMexEgT5RFxVUXGFJnt-22" value="ReLU" style="rounded=1;whiteSpace=wrap;html=1;" parent="ULMexEgT5RFxVUXGFJnt-53" vertex="1">
          <mxGeometry x="830" y="950" width="120" height="60" as="geometry" />
        </mxCell>
        <mxCell id="ULMexEgT5RFxVUXGFJnt-23" style="edgeStyle=orthogonalEdgeStyle;rounded=0;orthogonalLoop=1;jettySize=auto;html=1;" parent="ULMexEgT5RFxVUXGFJnt-53" source="ULMexEgT5RFxVUXGFJnt-24" target="ULMexEgT5RFxVUXGFJnt-26" edge="1">
          <mxGeometry relative="1" as="geometry" />
        </mxCell>
        <mxCell id="ULMexEgT5RFxVUXGFJnt-24" value="DepthWiseConv 3x3&lt;div&gt;d = 18&lt;/div&gt;&lt;div&gt;p = 18&lt;/div&gt;&lt;div&gt;&lt;div style=&quot;caret-color: rgba(0, 0, 0, 0);&quot;&gt;in = mid_channels&lt;/div&gt;&lt;div style=&quot;caret-color: rgba(0, 0, 0, 0);&quot;&gt;&lt;span style=&quot;caret-color: rgba(0, 0, 0, 0);&quot;&gt;out = mid_channels&lt;/span&gt;&lt;/div&gt;&lt;/div&gt;" style="rounded=1;whiteSpace=wrap;html=1;" parent="ULMexEgT5RFxVUXGFJnt-53" vertex="1">
          <mxGeometry x="320" y="1050" width="120" height="80" as="geometry" />
        </mxCell>
        <mxCell id="ULMexEgT5RFxVUXGFJnt-25" style="edgeStyle=orthogonalEdgeStyle;rounded=0;orthogonalLoop=1;jettySize=auto;html=1;entryX=0;entryY=0.5;entryDx=0;entryDy=0;" parent="ULMexEgT5RFxVUXGFJnt-53" source="ULMexEgT5RFxVUXGFJnt-26" target="ULMexEgT5RFxVUXGFJnt-28" edge="1">
          <mxGeometry relative="1" as="geometry" />
        </mxCell>
        <mxCell id="ULMexEgT5RFxVUXGFJnt-26" value="Conv 1x1&lt;div&gt;&lt;div style=&quot;caret-color: rgba(0, 0, 0, 0);&quot;&gt;in = mid_channels&lt;/div&gt;&lt;div style=&quot;caret-color: rgba(0, 0, 0, 0);&quot;&gt;&lt;span style=&quot;caret-color: rgba(0, 0, 0, 0);&quot;&gt;out = mid_channels&lt;/span&gt;&lt;/div&gt;&lt;/div&gt;" style="rounded=1;whiteSpace=wrap;html=1;" parent="ULMexEgT5RFxVUXGFJnt-53" vertex="1">
          <mxGeometry x="490" y="1060" width="120" height="60" as="geometry" />
        </mxCell>
        <mxCell id="ULMexEgT5RFxVUXGFJnt-27" value="" style="edgeStyle=orthogonalEdgeStyle;rounded=0;orthogonalLoop=1;jettySize=auto;html=1;" parent="ULMexEgT5RFxVUXGFJnt-53" source="ULMexEgT5RFxVUXGFJnt-28" target="ULMexEgT5RFxVUXGFJnt-30" edge="1">
          <mxGeometry relative="1" as="geometry" />
        </mxCell>
        <mxCell id="ULMexEgT5RFxVUXGFJnt-28" value="Batch Normalization" style="rounded=1;whiteSpace=wrap;html=1;" parent="ULMexEgT5RFxVUXGFJnt-53" vertex="1">
          <mxGeometry x="660" y="1060" width="120" height="60" as="geometry" />
        </mxCell>
        <mxCell id="ULMexEgT5RFxVUXGFJnt-29" value="Branch 3" style="text;html=1;align=center;verticalAlign=middle;whiteSpace=wrap;rounded=0;" parent="ULMexEgT5RFxVUXGFJnt-53" vertex="1">
          <mxGeometry x="40" y="1075" width="60" height="30" as="geometry" />
        </mxCell>
        <mxCell id="ULMexEgT5RFxVUXGFJnt-30" value="ReLU" style="rounded=1;whiteSpace=wrap;html=1;" parent="ULMexEgT5RFxVUXGFJnt-53" vertex="1">
          <mxGeometry x="830" y="1060" width="120" height="60" as="geometry" />
        </mxCell>
        <mxCell id="ULMexEgT5RFxVUXGFJnt-31" value="mid_channel = out_channel / 4 = 64" style="text;html=1;align=left;verticalAlign=middle;whiteSpace=wrap;rounded=0;" parent="ULMexEgT5RFxVUXGFJnt-53" vertex="1">
          <mxGeometry x="50" y="150" width="230" height="30" as="geometry" />
        </mxCell>
        <mxCell id="ULMexEgT5RFxVUXGFJnt-32" value="in_channel = 320" style="text;html=1;align=left;verticalAlign=middle;whiteSpace=wrap;rounded=0;" parent="ULMexEgT5RFxVUXGFJnt-53" vertex="1">
          <mxGeometry x="50" y="50" width="170" height="30" as="geometry" />
        </mxCell>
        <mxCell id="ULMexEgT5RFxVUXGFJnt-33" value="out_channel = 256" style="text;html=1;align=left;verticalAlign=middle;whiteSpace=wrap;rounded=0;" parent="ULMexEgT5RFxVUXGFJnt-53" vertex="1">
          <mxGeometry x="50" y="100" width="170" height="30" as="geometry" />
        </mxCell>
        <mxCell id="ULMexEgT5RFxVUXGFJnt-37" value="" style="edgeStyle=orthogonalEdgeStyle;rounded=0;orthogonalLoop=1;jettySize=auto;html=1;" parent="ULMexEgT5RFxVUXGFJnt-53" source="ULMexEgT5RFxVUXGFJnt-34" target="ULMexEgT5RFxVUXGFJnt-8" edge="1">
          <mxGeometry relative="1" as="geometry" />
        </mxCell>
        <mxCell id="ULMexEgT5RFxVUXGFJnt-34" value="Shared" style="rounded=1;whiteSpace=wrap;html=1;" parent="ULMexEgT5RFxVUXGFJnt-53" vertex="1">
          <mxGeometry x="150" y="840" width="120" height="60" as="geometry" />
        </mxCell>
        <mxCell id="ULMexEgT5RFxVUXGFJnt-38" value="" style="edgeStyle=orthogonalEdgeStyle;rounded=0;orthogonalLoop=1;jettySize=auto;html=1;" parent="ULMexEgT5RFxVUXGFJnt-53" source="ULMexEgT5RFxVUXGFJnt-35" target="ULMexEgT5RFxVUXGFJnt-16" edge="1">
          <mxGeometry relative="1" as="geometry" />
        </mxCell>
        <mxCell id="ULMexEgT5RFxVUXGFJnt-35" value="Shared" style="rounded=1;whiteSpace=wrap;html=1;" parent="ULMexEgT5RFxVUXGFJnt-53" vertex="1">
          <mxGeometry x="150" y="950" width="120" height="60" as="geometry" />
        </mxCell>
        <mxCell id="ULMexEgT5RFxVUXGFJnt-39" value="" style="edgeStyle=orthogonalEdgeStyle;rounded=0;orthogonalLoop=1;jettySize=auto;html=1;" parent="ULMexEgT5RFxVUXGFJnt-53" source="ULMexEgT5RFxVUXGFJnt-36" target="ULMexEgT5RFxVUXGFJnt-24" edge="1">
          <mxGeometry relative="1" as="geometry" />
        </mxCell>
        <mxCell id="ULMexEgT5RFxVUXGFJnt-36" value="Shared" style="rounded=1;whiteSpace=wrap;html=1;" parent="ULMexEgT5RFxVUXGFJnt-53" vertex="1">
          <mxGeometry x="150" y="1060" width="120" height="60" as="geometry" />
        </mxCell>
        <mxCell id="ULMexEgT5RFxVUXGFJnt-40" style="edgeStyle=orthogonalEdgeStyle;rounded=0;orthogonalLoop=1;jettySize=auto;html=1;" parent="ULMexEgT5RFxVUXGFJnt-53" source="ULMexEgT5RFxVUXGFJnt-41" target="ULMexEgT5RFxVUXGFJnt-43" edge="1">
          <mxGeometry relative="1" as="geometry" />
        </mxCell>
        <mxCell id="ULMexEgT5RFxVUXGFJnt-41" value="Conv 1x1&lt;div&gt;in = mid_channels * 4&lt;/div&gt;&lt;div&gt;out = out_channels&lt;/div&gt;" style="rounded=1;whiteSpace=wrap;html=1;" parent="ULMexEgT5RFxVUXGFJnt-53" vertex="1">
          <mxGeometry x="150" y="1170" width="120" height="60" as="geometry" />
        </mxCell>
        <mxCell id="ULMexEgT5RFxVUXGFJnt-43" value="Batch Normalization" style="rounded=1;whiteSpace=wrap;html=1;" parent="ULMexEgT5RFxVUXGFJnt-53" vertex="1">
          <mxGeometry x="320" y="1170" width="120" height="60" as="geometry" />
        </mxCell>
        <mxCell id="ULMexEgT5RFxVUXGFJnt-45" value="Final Conv" style="text;html=1;align=center;verticalAlign=middle;whiteSpace=wrap;rounded=0;" parent="ULMexEgT5RFxVUXGFJnt-53" vertex="1">
          <mxGeometry x="40" y="1185" width="60" height="30" as="geometry" />
        </mxCell>
        <mxCell id="ULMexEgT5RFxVUXGFJnt-46" style="edgeStyle=orthogonalEdgeStyle;rounded=0;orthogonalLoop=1;jettySize=auto;html=1;" parent="ULMexEgT5RFxVUXGFJnt-53" source="ULMexEgT5RFxVUXGFJnt-47" target="ULMexEgT5RFxVUXGFJnt-48" edge="1">
          <mxGeometry relative="1" as="geometry" />
        </mxCell>
        <mxCell id="ULMexEgT5RFxVUXGFJnt-47" value="Conv 1x1&lt;div&gt;in = in_channel&lt;/div&gt;&lt;div&gt;out = out_channels&lt;/div&gt;" style="rounded=1;whiteSpace=wrap;html=1;" parent="ULMexEgT5RFxVUXGFJnt-53" vertex="1">
          <mxGeometry x="350" y="200" width="120" height="60" as="geometry" />
        </mxCell>
        <mxCell id="ULMexEgT5RFxVUXGFJnt-50" style="edgeStyle=orthogonalEdgeStyle;rounded=0;orthogonalLoop=1;jettySize=auto;html=1;entryX=0.5;entryY=0;entryDx=0;entryDy=0;" parent="ULMexEgT5RFxVUXGFJnt-53" source="ULMexEgT5RFxVUXGFJnt-48" target="5yk39SSH48Gkq1F0wZIZ-12" edge="1">
          <mxGeometry relative="1" as="geometry" />
        </mxCell>
        <mxCell id="ULMexEgT5RFxVUXGFJnt-48" value="Batch Normalization" style="rounded=1;whiteSpace=wrap;html=1;" parent="ULMexEgT5RFxVUXGFJnt-53" vertex="1">
          <mxGeometry x="520" y="200" width="120" height="60" as="geometry" />
        </mxCell>
        <mxCell id="ULMexEgT5RFxVUXGFJnt-52" value="Multi Scale Feature Extractor Block" style="text;html=1;align=center;verticalAlign=middle;whiteSpace=wrap;rounded=0;fontSize=17;fontStyle=1" parent="ULMexEgT5RFxVUXGFJnt-53" vertex="1">
          <mxGeometry x="1090" y="1320" width="160" height="30" as="geometry" />
        </mxCell>
        <mxCell id="z89YqDohYfR149tu_x9s-14" value="" style="group" parent="1" vertex="1" connectable="0">
          <mxGeometry x="-60" y="1410" width="1280" height="650" as="geometry" />
        </mxCell>
        <mxCell id="z89YqDohYfR149tu_x9s-12" value="" style="rounded=1;whiteSpace=wrap;html=1;arcSize=4;" parent="z89YqDohYfR149tu_x9s-14" vertex="1">
          <mxGeometry width="1280" height="650" as="geometry" />
        </mxCell>
        <mxCell id="eNPJahaXqTW3j3RyROAE-3" style="edgeStyle=orthogonalEdgeStyle;rounded=0;orthogonalLoop=1;jettySize=auto;html=1;entryX=0;entryY=0.5;entryDx=0;entryDy=0;" parent="z89YqDohYfR149tu_x9s-14" source="eNPJahaXqTW3j3RyROAE-1" target="eNPJahaXqTW3j3RyROAE-2" edge="1">
          <mxGeometry relative="1" as="geometry">
            <Array as="points">
              <mxPoint x="90" y="173" />
              <mxPoint x="240" y="173" />
            </Array>
          </mxGeometry>
        </mxCell>
        <mxCell id="eNPJahaXqTW3j3RyROAE-5" style="edgeStyle=orthogonalEdgeStyle;rounded=0;orthogonalLoop=1;jettySize=auto;html=1;entryX=0;entryY=0.5;entryDx=0;entryDy=0;" parent="z89YqDohYfR149tu_x9s-14" source="eNPJahaXqTW3j3RyROAE-1" target="eNPJahaXqTW3j3RyROAE-4" edge="1">
          <mxGeometry relative="1" as="geometry" />
        </mxCell>
        <mxCell id="eNPJahaXqTW3j3RyROAE-1" value="Input" style="shape=parallelogram;perimeter=parallelogramPerimeter;whiteSpace=wrap;html=1;fixedSize=1;" parent="z89YqDohYfR149tu_x9s-14" vertex="1">
          <mxGeometry x="20" y="390" width="120" height="60" as="geometry" />
        </mxCell>
        <mxCell id="z89YqDohYfR149tu_x9s-6" style="edgeStyle=orthogonalEdgeStyle;rounded=0;orthogonalLoop=1;jettySize=auto;html=1;entryX=0.5;entryY=0;entryDx=0;entryDy=0;" parent="z89YqDohYfR149tu_x9s-14" source="eNPJahaXqTW3j3RyROAE-2" target="eNPJahaXqTW3j3RyROAE-19" edge="1">
          <mxGeometry relative="1" as="geometry" />
        </mxCell>
        <mxCell id="eNPJahaXqTW3j3RyROAE-2" value="&lt;div&gt;&lt;span style=&quot;caret-color: rgba(0, 0, 0, 0);&quot;&gt;Residual Conv&lt;/span&gt;&lt;/div&gt;&lt;span style=&quot;caret-color: rgba(0, 0, 0, 0);&quot;&gt;&lt;div&gt;&lt;span style=&quot;caret-color: rgba(0, 0, 0, 0);&quot;&gt;&lt;br&gt;&lt;/span&gt;&lt;/div&gt;Conv 1x1&lt;/span&gt;&lt;div style=&quot;caret-color: rgba(0, 0, 0, 0);&quot;&gt;in = in_channels&lt;/div&gt;&lt;div style=&quot;caret-color: rgba(0, 0, 0, 0);&quot;&gt;out = reduced_channels&lt;/div&gt;&lt;div style=&quot;caret-color: rgba(0, 0, 0, 0);&quot;&gt;&lt;br&gt;&lt;/div&gt;&lt;div style=&quot;caret-color: rgba(0, 0, 0, 0);&quot;&gt;with Learnable Scalling&lt;/div&gt;" style="rounded=1;whiteSpace=wrap;html=1;" parent="z89YqDohYfR149tu_x9s-14" vertex="1">
          <mxGeometry x="240" y="95" width="120" height="155" as="geometry" />
        </mxCell>
        <mxCell id="eNPJahaXqTW3j3RyROAE-8" style="edgeStyle=orthogonalEdgeStyle;rounded=0;orthogonalLoop=1;jettySize=auto;html=1;entryX=0;entryY=0.5;entryDx=0;entryDy=0;" parent="z89YqDohYfR149tu_x9s-14" source="eNPJahaXqTW3j3RyROAE-4" target="eNPJahaXqTW3j3RyROAE-6" edge="1">
          <mxGeometry relative="1" as="geometry" />
        </mxCell>
        <mxCell id="eNPJahaXqTW3j3RyROAE-9" style="edgeStyle=orthogonalEdgeStyle;rounded=0;orthogonalLoop=1;jettySize=auto;html=1;entryX=0;entryY=0.5;entryDx=0;entryDy=0;" parent="z89YqDohYfR149tu_x9s-14" source="eNPJahaXqTW3j3RyROAE-4" target="eNPJahaXqTW3j3RyROAE-7" edge="1">
          <mxGeometry relative="1" as="geometry" />
        </mxCell>
        <mxCell id="eNPJahaXqTW3j3RyROAE-4" value="Multi Scale Compression&lt;div&gt;&lt;br&gt;&lt;/div&gt;&lt;div&gt;&lt;span style=&quot;caret-color: rgba(0, 0, 0, 0);&quot;&gt;Conv 1x1&lt;/span&gt;&lt;div style=&quot;caret-color: rgba(0, 0, 0, 0);&quot;&gt;in = in_channels&lt;/div&gt;&lt;div style=&quot;caret-color: rgba(0, 0, 0, 0);&quot;&gt;out = reduced_channels&lt;/div&gt;&lt;/div&gt;" style="rounded=1;whiteSpace=wrap;html=1;" parent="z89YqDohYfR149tu_x9s-14" vertex="1">
          <mxGeometry x="240" y="350" width="120" height="140" as="geometry" />
        </mxCell>
        <mxCell id="z89YqDohYfR149tu_x9s-4" value="" style="edgeStyle=orthogonalEdgeStyle;rounded=0;orthogonalLoop=1;jettySize=auto;html=1;" parent="z89YqDohYfR149tu_x9s-14" source="eNPJahaXqTW3j3RyROAE-6" target="eNPJahaXqTW3j3RyROAE-10" edge="1">
          <mxGeometry relative="1" as="geometry" />
        </mxCell>
        <mxCell id="eNPJahaXqTW3j3RyROAE-6" value="Multi Scale Conv 1&lt;div&gt;&lt;br&gt;&lt;/div&gt;&lt;div&gt;depthwise 3x3&lt;/div&gt;&lt;div&gt;in = reduced_channels&lt;/div&gt;&lt;div&gt;out = reduced_channels / 2&lt;/div&gt;&lt;div&gt;d = 1, p = 1,&lt;/div&gt;&lt;div&gt;BN&lt;/div&gt;&lt;div&gt;SiLU&lt;br&gt;&lt;div&gt;&lt;br&gt;&lt;/div&gt;&lt;div&gt;&lt;span style=&quot;caret-color: rgba(0, 0, 0, 0);&quot;&gt;Learnable Weight&lt;/span&gt;&lt;/div&gt;&lt;/div&gt;" style="rounded=1;whiteSpace=wrap;html=1;" parent="z89YqDohYfR149tu_x9s-14" vertex="1">
          <mxGeometry x="400" y="190" width="160" height="150" as="geometry" />
        </mxCell>
        <mxCell id="z89YqDohYfR149tu_x9s-5" value="" style="edgeStyle=orthogonalEdgeStyle;rounded=0;orthogonalLoop=1;jettySize=auto;html=1;" parent="z89YqDohYfR149tu_x9s-14" source="eNPJahaXqTW3j3RyROAE-7" target="eNPJahaXqTW3j3RyROAE-10" edge="1">
          <mxGeometry relative="1" as="geometry" />
        </mxCell>
        <mxCell id="eNPJahaXqTW3j3RyROAE-7" value="&lt;span style=&quot;caret-color: rgba(0, 0, 0, 0);&quot;&gt;Multi Scale Conv 3&lt;/span&gt;&lt;div style=&quot;caret-color: rgba(0, 0, 0, 0);&quot;&gt;&lt;br&gt;&lt;/div&gt;&lt;div style=&quot;caret-color: rgba(0, 0, 0, 0);&quot;&gt;depthwise 3x3&lt;/div&gt;&lt;div style=&quot;caret-color: rgba(0, 0, 0, 0);&quot;&gt;&lt;div style=&quot;caret-color: rgba(0, 0, 0, 0);&quot;&gt;in = reduced_channels&lt;/div&gt;&lt;div style=&quot;caret-color: rgba(0, 0, 0, 0);&quot;&gt;out = reduced_channels / 2&lt;/div&gt;&lt;/div&gt;&lt;div style=&quot;caret-color: rgba(0, 0, 0, 0);&quot;&gt;d = 3, p = 3,&lt;/div&gt;&lt;div style=&quot;caret-color: rgba(0, 0, 0, 0);&quot;&gt;BN&lt;/div&gt;&lt;div style=&quot;caret-color: rgba(0, 0, 0, 0);&quot;&gt;SiLU&lt;br&gt;&lt;div&gt;&lt;br&gt;&lt;/div&gt;&lt;div&gt;&lt;span style=&quot;caret-color: rgba(0, 0, 0, 0);&quot;&gt;Learnable Weight&lt;/span&gt;&lt;/div&gt;&lt;/div&gt;" style="rounded=1;whiteSpace=wrap;html=1;" parent="z89YqDohYfR149tu_x9s-14" vertex="1">
          <mxGeometry x="400" y="480" width="160" height="150" as="geometry" />
        </mxCell>
        <mxCell id="eNPJahaXqTW3j3RyROAE-23" value="" style="edgeStyle=orthogonalEdgeStyle;rounded=0;orthogonalLoop=1;jettySize=auto;html=1;" parent="z89YqDohYfR149tu_x9s-14" source="eNPJahaXqTW3j3RyROAE-10" target="eNPJahaXqTW3j3RyROAE-22" edge="1">
          <mxGeometry relative="1" as="geometry" />
        </mxCell>
        <mxCell id="eNPJahaXqTW3j3RyROAE-10" value="Concat" style="ellipse;whiteSpace=wrap;html=1;" parent="z89YqDohYfR149tu_x9s-14" vertex="1">
          <mxGeometry x="420" y="370" width="120" height="80" as="geometry" />
        </mxCell>
        <mxCell id="eNPJahaXqTW3j3RyROAE-26" value="" style="edgeStyle=orthogonalEdgeStyle;rounded=0;orthogonalLoop=1;jettySize=auto;html=1;" parent="z89YqDohYfR149tu_x9s-14" source="eNPJahaXqTW3j3RyROAE-19" target="eNPJahaXqTW3j3RyROAE-25" edge="1">
          <mxGeometry relative="1" as="geometry" />
        </mxCell>
        <mxCell id="eNPJahaXqTW3j3RyROAE-19" value="Add" style="ellipse;whiteSpace=wrap;html=1;" parent="z89YqDohYfR149tu_x9s-14" vertex="1">
          <mxGeometry x="740" y="370" width="60" height="80" as="geometry" />
        </mxCell>
        <mxCell id="eNPJahaXqTW3j3RyROAE-24" value="" style="edgeStyle=orthogonalEdgeStyle;rounded=0;orthogonalLoop=1;jettySize=auto;html=1;" parent="z89YqDohYfR149tu_x9s-14" source="eNPJahaXqTW3j3RyROAE-22" target="eNPJahaXqTW3j3RyROAE-19" edge="1">
          <mxGeometry relative="1" as="geometry" />
        </mxCell>
        <mxCell id="eNPJahaXqTW3j3RyROAE-22" value="Multi Scale Fusion&lt;div&gt;&lt;br&gt;&lt;/div&gt;&lt;div&gt;&lt;span style=&quot;caret-color: rgba(0, 0, 0, 0);&quot;&gt;Conv 1x1&lt;/span&gt;&lt;div style=&quot;caret-color: rgba(0, 0, 0, 0);&quot;&gt;in = reduced_channels&lt;/div&gt;&lt;div style=&quot;caret-color: rgba(0, 0, 0, 0);&quot;&gt;out = reduced_channels&lt;/div&gt;&lt;/div&gt;" style="rounded=1;whiteSpace=wrap;html=1;" parent="z89YqDohYfR149tu_x9s-14" vertex="1">
          <mxGeometry x="580" y="340" width="120" height="140" as="geometry" />
        </mxCell>
        <mxCell id="eNPJahaXqTW3j3RyROAE-28" value="" style="edgeStyle=orthogonalEdgeStyle;rounded=0;orthogonalLoop=1;jettySize=auto;html=1;" parent="z89YqDohYfR149tu_x9s-14" source="eNPJahaXqTW3j3RyROAE-25" target="eNPJahaXqTW3j3RyROAE-27" edge="1">
          <mxGeometry relative="1" as="geometry" />
        </mxCell>
        <mxCell id="eNPJahaXqTW3j3RyROAE-25" value="Conv 1&lt;div&gt;&lt;br&gt;&lt;/div&gt;&lt;div&gt;&lt;span style=&quot;caret-color: rgba(0, 0, 0, 0);&quot;&gt;Conv 1x1&lt;/span&gt;&lt;div style=&quot;caret-color: rgba(0, 0, 0, 0);&quot;&gt;in = reduced_channels&lt;/div&gt;&lt;div style=&quot;caret-color: rgba(0, 0, 0, 0);&quot;&gt;out = reduced_channels&lt;/div&gt;&lt;/div&gt;&lt;div style=&quot;caret-color: rgba(0, 0, 0, 0);&quot;&gt;&lt;br&gt;&lt;/div&gt;&lt;div style=&quot;caret-color: rgba(0, 0, 0, 0);&quot;&gt;BN&lt;/div&gt;&lt;div style=&quot;caret-color: rgba(0, 0, 0, 0);&quot;&gt;&lt;br&gt;&lt;/div&gt;&lt;div style=&quot;caret-color: rgba(0, 0, 0, 0);&quot;&gt;SiLU&lt;/div&gt;&lt;div style=&quot;caret-color: rgba(0, 0, 0, 0);&quot;&gt;&lt;br&gt;&lt;/div&gt;&lt;div style=&quot;caret-color: rgba(0, 0, 0, 0);&quot;&gt;Enhanced Attention&lt;/div&gt;&lt;div style=&quot;caret-color: rgba(0, 0, 0, 0);&quot;&gt;in_channels&lt;/div&gt;&lt;div style=&quot;caret-color: rgba(0, 0, 0, 0);&quot;&gt;reduction&lt;/div&gt;" style="rounded=1;whiteSpace=wrap;html=1;" parent="z89YqDohYfR149tu_x9s-14" vertex="1">
          <mxGeometry x="830" y="250" width="120" height="320" as="geometry" />
        </mxCell>
        <mxCell id="z89YqDohYfR149tu_x9s-9" value="" style="edgeStyle=orthogonalEdgeStyle;rounded=0;orthogonalLoop=1;jettySize=auto;html=1;" parent="z89YqDohYfR149tu_x9s-14" source="eNPJahaXqTW3j3RyROAE-27" target="eNPJahaXqTW3j3RyROAE-31" edge="1">
          <mxGeometry relative="1" as="geometry" />
        </mxCell>
        <mxCell id="eNPJahaXqTW3j3RyROAE-27" value="Upsample&lt;div&gt;&lt;br&gt;&lt;/div&gt;&lt;div&gt;conv 3x3&lt;/div&gt;&lt;div&gt;in = reduced_channels&lt;/div&gt;&lt;div&gt;out = reduced_channels&lt;/div&gt;&lt;div&gt;p = 1&lt;/div&gt;" style="rounded=1;whiteSpace=wrap;html=1;" parent="z89YqDohYfR149tu_x9s-14" vertex="1">
          <mxGeometry x="980" y="335" width="120" height="150" as="geometry" />
        </mxCell>
        <mxCell id="z89YqDohYfR149tu_x9s-10" value="" style="edgeStyle=orthogonalEdgeStyle;rounded=0;orthogonalLoop=1;jettySize=auto;html=1;" parent="z89YqDohYfR149tu_x9s-14" source="eNPJahaXqTW3j3RyROAE-31" target="eNPJahaXqTW3j3RyROAE-33" edge="1">
          <mxGeometry relative="1" as="geometry" />
        </mxCell>
        <mxCell id="eNPJahaXqTW3j3RyROAE-31" value="Adaptive Spatial Weighting" style="rounded=1;whiteSpace=wrap;html=1;" parent="z89YqDohYfR149tu_x9s-14" vertex="1">
          <mxGeometry x="1005" y="240" width="70" height="60" as="geometry" />
        </mxCell>
        <mxCell id="z89YqDohYfR149tu_x9s-11" style="edgeStyle=orthogonalEdgeStyle;rounded=0;orthogonalLoop=1;jettySize=auto;html=1;entryX=0;entryY=0.5;entryDx=0;entryDy=0;" parent="z89YqDohYfR149tu_x9s-14" source="eNPJahaXqTW3j3RyROAE-33" target="eNPJahaXqTW3j3RyROAE-35" edge="1">
          <mxGeometry relative="1" as="geometry" />
        </mxCell>
        <mxCell id="eNPJahaXqTW3j3RyROAE-33" value="LSAD" style="rounded=1;whiteSpace=wrap;html=1;" parent="z89YqDohYfR149tu_x9s-14" vertex="1">
          <mxGeometry x="1005" y="152.5" width="70" height="60" as="geometry" />
        </mxCell>
        <mxCell id="eNPJahaXqTW3j3RyROAE-40" value="" style="edgeStyle=orthogonalEdgeStyle;rounded=0;orthogonalLoop=1;jettySize=auto;html=1;" parent="z89YqDohYfR149tu_x9s-14" source="eNPJahaXqTW3j3RyROAE-35" target="eNPJahaXqTW3j3RyROAE-36" edge="1">
          <mxGeometry relative="1" as="geometry" />
        </mxCell>
        <mxCell id="eNPJahaXqTW3j3RyROAE-35" value="Conv 2&lt;div&gt;&lt;br&gt;&lt;/div&gt;&lt;div&gt;&lt;div style=&quot;caret-color: rgba(0, 0, 0, 0);&quot;&gt;&lt;span style=&quot;caret-color: rgba(0, 0, 0, 0);&quot;&gt;DepthWise 3x3&lt;/span&gt;&lt;div style=&quot;caret-color: rgba(0, 0, 0, 0);&quot;&gt;in = 4&lt;/div&gt;&lt;div style=&quot;caret-color: rgba(0, 0, 0, 0);&quot;&gt;out = 4&lt;/div&gt;&lt;div style=&quot;caret-color: rgba(0, 0, 0, 0);&quot;&gt;p = 1&lt;/div&gt;&lt;div style=&quot;caret-color: rgba(0, 0, 0, 0);&quot;&gt;&lt;br&gt;&lt;/div&gt;&lt;div style=&quot;caret-color: rgba(0, 0, 0, 0);&quot;&gt;&lt;span style=&quot;caret-color: rgba(0, 0, 0, 0);&quot;&gt;Conv 1x1&lt;/span&gt;&lt;div style=&quot;caret-color: rgba(0, 0, 0, 0);&quot;&gt;in = 4&lt;/div&gt;&lt;div style=&quot;caret-color: rgba(0, 0, 0, 0);&quot;&gt;out = out_channels&lt;/div&gt;&lt;/div&gt;&lt;/div&gt;&lt;div style=&quot;caret-color: rgba(0, 0, 0, 0);&quot;&gt;&lt;br&gt;&lt;/div&gt;&lt;div style=&quot;caret-color: rgba(0, 0, 0, 0);&quot;&gt;BN&lt;/div&gt;&lt;div style=&quot;caret-color: rgba(0, 0, 0, 0);&quot;&gt;&lt;br&gt;&lt;/div&gt;&lt;div style=&quot;caret-color: rgba(0, 0, 0, 0);&quot;&gt;SiLU&lt;/div&gt;&lt;div style=&quot;caret-color: rgba(0, 0, 0, 0);&quot;&gt;&lt;br&gt;&lt;/div&gt;&lt;div style=&quot;caret-color: rgba(0, 0, 0, 0);&quot;&gt;DropBlock&lt;/div&gt;&lt;/div&gt;&lt;div style=&quot;caret-color: rgba(0, 0, 0, 0);&quot;&gt;dropout_rate&lt;/div&gt;&lt;div style=&quot;caret-color: rgba(0, 0, 0, 0);&quot;&gt;block_size = 5&lt;/div&gt;" style="rounded=1;whiteSpace=wrap;html=1;" parent="z89YqDohYfR149tu_x9s-14" vertex="1">
          <mxGeometry x="1130" y="37.5" width="120" height="290" as="geometry" />
        </mxCell>
        <mxCell id="eNPJahaXqTW3j3RyROAE-42" value="" style="edgeStyle=orthogonalEdgeStyle;rounded=0;orthogonalLoop=1;jettySize=auto;html=1;" parent="z89YqDohYfR149tu_x9s-14" source="eNPJahaXqTW3j3RyROAE-36" target="eNPJahaXqTW3j3RyROAE-41" edge="1">
          <mxGeometry relative="1" as="geometry" />
        </mxCell>
        <mxCell id="eNPJahaXqTW3j3RyROAE-36" value="Stocastic Depth" style="rounded=1;whiteSpace=wrap;html=1;" parent="z89YqDohYfR149tu_x9s-14" vertex="1">
          <mxGeometry x="1130" y="370" width="120" height="60" as="geometry" />
        </mxCell>
        <mxCell id="eNPJahaXqTW3j3RyROAE-41" value="Output" style="shape=parallelogram;perimeter=parallelogramPerimeter;whiteSpace=wrap;html=1;fixedSize=1;" parent="z89YqDohYfR149tu_x9s-14" vertex="1">
          <mxGeometry x="1130" y="470" width="120" height="60" as="geometry" />
        </mxCell>
        <mxCell id="z89YqDohYfR149tu_x9s-1" value="in_channels = 256&lt;div&gt;low_level_channels = 24&amp;nbsp;&lt;/div&gt;&lt;div&gt;out_channel s= 128&lt;/div&gt;&lt;div&gt;reduced_channels = 16&lt;/div&gt;&lt;div&gt;input_shape = 256, 8, 8&lt;/div&gt;" style="text;html=1;align=left;verticalAlign=middle;whiteSpace=wrap;rounded=0;" parent="z89YqDohYfR149tu_x9s-14" vertex="1">
          <mxGeometry x="30" y="35" width="170" height="60" as="geometry" />
        </mxCell>
        <mxCell id="z89YqDohYfR149tu_x9s-13" value="Decoder" style="text;html=1;align=center;verticalAlign=middle;whiteSpace=wrap;rounded=0;fontSize=17;fontStyle=1" parent="z89YqDohYfR149tu_x9s-14" vertex="1">
          <mxGeometry x="1160" y="600" width="90" height="30" as="geometry" />
        </mxCell>
        <mxCell id="xiXWbwwcQiquKYwGnvd0-16" value="" style="group" parent="1" vertex="1" connectable="0">
          <mxGeometry x="-88.89" y="2300" width="528.89" height="950" as="geometry" />
        </mxCell>
        <mxCell id="xiXWbwwcQiquKYwGnvd0-9" value="" style="rounded=1;whiteSpace=wrap;html=1;arcSize=7;" parent="xiXWbwwcQiquKYwGnvd0-16" vertex="1">
          <mxGeometry width="528.89" height="950" as="geometry" />
        </mxCell>
        <mxCell id="xiXWbwwcQiquKYwGnvd0-8" value="" style="group" parent="xiXWbwwcQiquKYwGnvd0-16" vertex="1" connectable="0">
          <mxGeometry x="318.89" y="250" width="140" height="430" as="geometry" />
        </mxCell>
        <mxCell id="8H9cI5T97NmYwnlC7RZ_-23" value="" style="edgeStyle=orthogonalEdgeStyle;rounded=0;orthogonalLoop=1;jettySize=auto;html=1;" parent="xiXWbwwcQiquKYwGnvd0-8" source="8H9cI5T97NmYwnlC7RZ_-10" target="8H9cI5T97NmYwnlC7RZ_-11" edge="1">
          <mxGeometry relative="1" as="geometry" />
        </mxCell>
        <mxCell id="8H9cI5T97NmYwnlC7RZ_-10" value="&lt;div style=&quot;caret-color: rgba(0, 0, 0, 0);&quot;&gt;&lt;span style=&quot;caret-color: light-dark(rgba(0, 0, 0, 0), rgb(237, 237, 237)); background-color: transparent; color: light-dark(rgb(0, 0, 0), rgb(255, 255, 255));&quot;&gt;Expand Channels to expansion_value by Depthwise 1x1&lt;/span&gt;&lt;/div&gt;&lt;div style=&quot;caret-color: rgba(0, 0, 0, 0);&quot;&gt;&lt;span style=&quot;caret-color: light-dark(rgba(0, 0, 0, 0), rgb(237, 237, 237)); background-color: transparent; color: light-dark(rgb(0, 0, 0), rgb(255, 255, 255));&quot;&gt;BN *&amp;nbsp;&lt;/span&gt;&lt;span style=&quot;background-color: transparent; color: light-dark(rgb(0, 0, 0), rgb(255, 255, 255)); caret-color: light-dark(rgba(0, 0, 0, 0), rgb(237, 237, 237));&quot;&gt;Swish&lt;/span&gt;&lt;/div&gt;" style="rounded=1;whiteSpace=wrap;html=1;" parent="xiXWbwwcQiquKYwGnvd0-8" vertex="1">
          <mxGeometry x="10" width="120" height="80" as="geometry" />
        </mxCell>
        <mxCell id="8H9cI5T97NmYwnlC7RZ_-24" value="" style="edgeStyle=orthogonalEdgeStyle;rounded=0;orthogonalLoop=1;jettySize=auto;html=1;" parent="xiXWbwwcQiquKYwGnvd0-8" source="8H9cI5T97NmYwnlC7RZ_-11" target="8H9cI5T97NmYwnlC7RZ_-12" edge="1">
          <mxGeometry relative="1" as="geometry" />
        </mxCell>
        <mxCell id="8H9cI5T97NmYwnlC7RZ_-11" value="Depthwise 3x3&lt;div&gt;c = expansion_value&lt;/div&gt;&lt;div&gt;s = stride&lt;/div&gt;&lt;div&gt;&lt;span style=&quot;background-color: transparent; color: light-dark(rgb(0, 0, 0), rgb(255, 255, 255));&quot;&gt;BN *&amp;nbsp;&lt;/span&gt;&lt;span style=&quot;background-color: transparent; color: light-dark(rgb(0, 0, 0), rgb(255, 255, 255));&quot;&gt;Swish&lt;/span&gt;&lt;/div&gt;" style="rounded=1;whiteSpace=wrap;html=1;" parent="xiXWbwwcQiquKYwGnvd0-8" vertex="1">
          <mxGeometry x="10" y="100" width="120" height="70" as="geometry" />
        </mxCell>
        <mxCell id="8H9cI5T97NmYwnlC7RZ_-25" value="" style="edgeStyle=orthogonalEdgeStyle;rounded=0;orthogonalLoop=1;jettySize=auto;html=1;" parent="xiXWbwwcQiquKYwGnvd0-8" source="8H9cI5T97NmYwnlC7RZ_-12" target="8H9cI5T97NmYwnlC7RZ_-14" edge="1">
          <mxGeometry relative="1" as="geometry" />
        </mxCell>
        <mxCell id="8H9cI5T97NmYwnlC7RZ_-12" value="Grouped Pointwise 1x1&lt;div&gt;group = channels&lt;div&gt;c = channels&lt;/div&gt;&lt;div&gt;BN&lt;/div&gt;&lt;/div&gt;" style="rounded=1;whiteSpace=wrap;html=1;" parent="xiXWbwwcQiquKYwGnvd0-8" vertex="1">
          <mxGeometry x="10" y="190" width="120" height="90" as="geometry" />
        </mxCell>
        <mxCell id="8H9cI5T97NmYwnlC7RZ_-26" value="" style="edgeStyle=orthogonalEdgeStyle;rounded=0;orthogonalLoop=1;jettySize=auto;html=1;" parent="xiXWbwwcQiquKYwGnvd0-8" source="8H9cI5T97NmYwnlC7RZ_-14" target="8H9cI5T97NmYwnlC7RZ_-15" edge="1">
          <mxGeometry relative="1" as="geometry" />
        </mxCell>
        <mxCell id="8H9cI5T97NmYwnlC7RZ_-14" value="ECA" style="rounded=1;whiteSpace=wrap;html=1;" parent="xiXWbwwcQiquKYwGnvd0-8" vertex="1">
          <mxGeometry x="45" y="300" width="50" height="30" as="geometry" />
        </mxCell>
        <mxCell id="8H9cI5T97NmYwnlC7RZ_-15" value="Drop Path" style="rounded=1;whiteSpace=wrap;html=1;" parent="xiXWbwwcQiquKYwGnvd0-8" vertex="1">
          <mxGeometry x="35" y="350" width="70" height="30" as="geometry" />
        </mxCell>
        <mxCell id="8H9cI5T97NmYwnlC7RZ_-27" value="ULC Block ( channels, stride, expansion)" style="text;html=1;align=center;verticalAlign=middle;whiteSpace=wrap;rounded=0;" parent="xiXWbwwcQiquKYwGnvd0-8" vertex="1">
          <mxGeometry y="400" width="140" height="30" as="geometry" />
        </mxCell>
        <mxCell id="8H9cI5T97NmYwnlC7RZ_-16" value="" style="edgeStyle=orthogonalEdgeStyle;rounded=0;orthogonalLoop=1;jettySize=auto;html=1;" parent="xiXWbwwcQiquKYwGnvd0-16" source="8H9cI5T97NmYwnlC7RZ_-1" target="8H9cI5T97NmYwnlC7RZ_-2" edge="1">
          <mxGeometry relative="1" as="geometry" />
        </mxCell>
        <mxCell id="8H9cI5T97NmYwnlC7RZ_-1" value="Conv 3x3&lt;div&gt;in = 3&lt;/div&gt;&lt;div&gt;out = 32&lt;/div&gt;&lt;div&gt;s = 2, p = 1&lt;/div&gt;&lt;div&gt;&lt;br&gt;&lt;/div&gt;&lt;div&gt;BN&lt;/div&gt;&lt;div&gt;Swish&lt;/div&gt;" style="rounded=1;whiteSpace=wrap;html=1;" parent="xiXWbwwcQiquKYwGnvd0-16" vertex="1">
          <mxGeometry x="18.89" y="25" width="113.33333333333333" height="130" as="geometry" />
        </mxCell>
        <mxCell id="xiXWbwwcQiquKYwGnvd0-1" style="edgeStyle=orthogonalEdgeStyle;rounded=0;orthogonalLoop=1;jettySize=auto;html=1;entryX=0.5;entryY=0;entryDx=0;entryDy=0;" parent="xiXWbwwcQiquKYwGnvd0-16" source="8H9cI5T97NmYwnlC7RZ_-2" target="8H9cI5T97NmYwnlC7RZ_-29" edge="1">
          <mxGeometry relative="1" as="geometry" />
        </mxCell>
        <mxCell id="8H9cI5T97NmYwnlC7RZ_-2" value="ULC 3x3,&amp;nbsp;&lt;div&gt;c = 16, s = 1, e = 1&lt;/div&gt;" style="rounded=1;whiteSpace=wrap;html=1;" parent="xiXWbwwcQiquKYwGnvd0-16" vertex="1">
          <mxGeometry x="23.61222222222223" y="205" width="103.88888888888889" height="60" as="geometry" />
        </mxCell>
        <mxCell id="xiXWbwwcQiquKYwGnvd0-3" value="" style="edgeStyle=orthogonalEdgeStyle;rounded=0;orthogonalLoop=1;jettySize=auto;html=1;" parent="xiXWbwwcQiquKYwGnvd0-16" source="8H9cI5T97NmYwnlC7RZ_-4" target="8H9cI5T97NmYwnlC7RZ_-5" edge="1">
          <mxGeometry relative="1" as="geometry" />
        </mxCell>
        <mxCell id="8H9cI5T97NmYwnlC7RZ_-4" value="&lt;span style=&quot;caret-color: rgba(0, 0, 0, 0);&quot;&gt;ULC 5x5,&amp;nbsp;&lt;/span&gt;&lt;div style=&quot;caret-color: rgba(0, 0, 0, 0);&quot;&gt;c = 40, s = 2, e = 3&lt;/div&gt;" style="rounded=1;whiteSpace=wrap;html=1;" parent="xiXWbwwcQiquKYwGnvd0-16" vertex="1">
          <mxGeometry x="18.89" y="405" width="113.33333333333333" height="60" as="geometry" />
        </mxCell>
        <mxCell id="xiXWbwwcQiquKYwGnvd0-4" value="" style="edgeStyle=orthogonalEdgeStyle;rounded=0;orthogonalLoop=1;jettySize=auto;html=1;" parent="xiXWbwwcQiquKYwGnvd0-16" source="8H9cI5T97NmYwnlC7RZ_-5" target="8H9cI5T97NmYwnlC7RZ_-6" edge="1">
          <mxGeometry relative="1" as="geometry" />
        </mxCell>
        <mxCell id="8H9cI5T97NmYwnlC7RZ_-5" value="&lt;span style=&quot;caret-color: rgba(0, 0, 0, 0);&quot;&gt;ULC 3x3,&amp;nbsp;&lt;/span&gt;&lt;div style=&quot;caret-color: rgba(0, 0, 0, 0);&quot;&gt;c = 80, s = 2, e = 3&lt;/div&gt;" style="rounded=1;whiteSpace=wrap;html=1;" parent="xiXWbwwcQiquKYwGnvd0-16" vertex="1">
          <mxGeometry x="18.89" y="505" width="113.33333333333333" height="60" as="geometry" />
        </mxCell>
        <mxCell id="xiXWbwwcQiquKYwGnvd0-5" value="" style="edgeStyle=orthogonalEdgeStyle;rounded=0;orthogonalLoop=1;jettySize=auto;html=1;" parent="xiXWbwwcQiquKYwGnvd0-16" source="8H9cI5T97NmYwnlC7RZ_-6" target="8H9cI5T97NmYwnlC7RZ_-7" edge="1">
          <mxGeometry relative="1" as="geometry" />
        </mxCell>
        <mxCell id="8H9cI5T97NmYwnlC7RZ_-6" value="&lt;span style=&quot;caret-color: rgba(0, 0, 0, 0);&quot;&gt;ULC 5x5,&amp;nbsp;&lt;/span&gt;&lt;div style=&quot;caret-color: rgba(0, 0, 0, 0);&quot;&gt;c = 112, s = 1, e = 3&lt;/div&gt;" style="rounded=1;whiteSpace=wrap;html=1;" parent="xiXWbwwcQiquKYwGnvd0-16" vertex="1">
          <mxGeometry x="18.89" y="605" width="113.33333333333333" height="60" as="geometry" />
        </mxCell>
        <mxCell id="xiXWbwwcQiquKYwGnvd0-6" value="" style="edgeStyle=orthogonalEdgeStyle;rounded=0;orthogonalLoop=1;jettySize=auto;html=1;" parent="xiXWbwwcQiquKYwGnvd0-16" source="8H9cI5T97NmYwnlC7RZ_-7" target="8H9cI5T97NmYwnlC7RZ_-8" edge="1">
          <mxGeometry relative="1" as="geometry" />
        </mxCell>
        <mxCell id="8H9cI5T97NmYwnlC7RZ_-7" value="&lt;span style=&quot;caret-color: rgba(0, 0, 0, 0);&quot;&gt;ULC 5x5,&amp;nbsp;&lt;/span&gt;&lt;div style=&quot;caret-color: rgba(0, 0, 0, 0);&quot;&gt;c = 192, s = 2, e = 3&lt;/div&gt;" style="rounded=1;whiteSpace=wrap;html=1;" parent="xiXWbwwcQiquKYwGnvd0-16" vertex="1">
          <mxGeometry x="18.89" y="705" width="113.33333333333333" height="60" as="geometry" />
        </mxCell>
        <mxCell id="xiXWbwwcQiquKYwGnvd0-13" value="" style="edgeStyle=orthogonalEdgeStyle;rounded=0;orthogonalLoop=1;jettySize=auto;html=1;" parent="xiXWbwwcQiquKYwGnvd0-16" source="8H9cI5T97NmYwnlC7RZ_-8" target="xiXWbwwcQiquKYwGnvd0-12" edge="1">
          <mxGeometry relative="1" as="geometry" />
        </mxCell>
        <mxCell id="8H9cI5T97NmYwnlC7RZ_-8" value="&lt;span style=&quot;caret-color: rgba(0, 0, 0, 0);&quot;&gt;ULC 3x3,&amp;nbsp;&lt;/span&gt;&lt;div style=&quot;caret-color: rgba(0, 0, 0, 0);&quot;&gt;c = 320, s = 1, e = 3&lt;/div&gt;" style="rounded=1;whiteSpace=wrap;html=1;" parent="xiXWbwwcQiquKYwGnvd0-16" vertex="1">
          <mxGeometry x="18.89" y="805" width="113.33333333333333" height="60" as="geometry" />
        </mxCell>
        <mxCell id="8H9cI5T97NmYwnlC7RZ_-28" value="Encoder" style="text;html=1;align=center;verticalAlign=middle;whiteSpace=wrap;rounded=0;fontStyle=1" parent="xiXWbwwcQiquKYwGnvd0-16" vertex="1">
          <mxGeometry x="47.22333333333333" y="890" width="56.666666666666664" height="30" as="geometry" />
        </mxCell>
        <mxCell id="xiXWbwwcQiquKYwGnvd0-2" style="edgeStyle=orthogonalEdgeStyle;rounded=0;orthogonalLoop=1;jettySize=auto;html=1;entryX=0.5;entryY=0;entryDx=0;entryDy=0;" parent="xiXWbwwcQiquKYwGnvd0-16" source="8H9cI5T97NmYwnlC7RZ_-29" target="8H9cI5T97NmYwnlC7RZ_-4" edge="1">
          <mxGeometry relative="1" as="geometry" />
        </mxCell>
        <mxCell id="xiXWbwwcQiquKYwGnvd0-15" value="" style="edgeStyle=orthogonalEdgeStyle;rounded=0;orthogonalLoop=1;jettySize=auto;html=1;" parent="xiXWbwwcQiquKYwGnvd0-16" source="8H9cI5T97NmYwnlC7RZ_-29" target="xiXWbwwcQiquKYwGnvd0-11" edge="1">
          <mxGeometry relative="1" as="geometry" />
        </mxCell>
        <mxCell id="8H9cI5T97NmYwnlC7RZ_-29" value="&lt;span style=&quot;caret-color: rgba(0, 0, 0, 0);&quot;&gt;ULC 3x3,&amp;nbsp;&lt;/span&gt;&lt;div style=&quot;caret-color: rgba(0, 0, 0, 0);&quot;&gt;c = 24, s = 2, e = 3&lt;/div&gt;" style="rounded=1;whiteSpace=wrap;html=1;" parent="xiXWbwwcQiquKYwGnvd0-16" vertex="1">
          <mxGeometry x="18.89" y="305" width="113.33333333333333" height="60" as="geometry" />
        </mxCell>
        <mxCell id="xiXWbwwcQiquKYwGnvd0-11" value="Low Level Feature" style="shape=cylinder3;whiteSpace=wrap;html=1;boundedLbl=1;backgroundOutline=1;size=15;" parent="xiXWbwwcQiquKYwGnvd0-16" vertex="1">
          <mxGeometry x="208.89" y="295" width="60" height="80" as="geometry" />
        </mxCell>
        <mxCell id="xiXWbwwcQiquKYwGnvd0-12" value="High Level Feature" style="shape=cylinder3;whiteSpace=wrap;html=1;boundedLbl=1;backgroundOutline=1;size=15;" parent="xiXWbwwcQiquKYwGnvd0-16" vertex="1">
          <mxGeometry x="208.89" y="795" width="60" height="80" as="geometry" />
        </mxCell>
      </root>
    </mxGraphModel>
  </diagram>
</mxfile>
